<svg xmlns="http://www.w3.org/2000/svg" xmlns:xlink="http://www.w3.org/1999/xlink" width="270" height="270" stroke="#000" stroke-linecap="round" stroke-linejoin="round" fill="#fff" fill-rule="evenodd"><g stroke="none"><use xlink:href="#B" fill="#ffe082" transform="matrix(.93969262 -.34202014 .34202014 .93969262 144.9233977 120.32032114)"/><use xlink:href="#C" fill="#ffd54f" transform="matrix(.93969262 -.34202014 .34202014 .93969262 102.57732215 147.21246806)"/><use xlink:href="#D" fill="#ffc107" transform="matrix(.93969262 -.34202014 .34202014 .93969262 140.8950977 154.42512114)"/><use xlink:href="#B" fill="#ffecb3" transform="matrix(.93969262 -.34202014 .34202014 .93969262 109.2090977 166.55672114)"/><use xlink:href="#C" fill="#ffca28" transform="matrix(.93969262 -.34202014 .34202014 .93969262 62.47752215 196.33856806)"/><use xlink:href="#D" fill="#ffa000" transform="matrix(.93969262 -.34202014 .34202014 .93969262 100.7952977 203.55122114)"/><use xlink:href="#B" fill="#ffe082" transform="matrix(.93969262 -.34202014 .34202014 .93969262 69.1093977 215.68282114)"/><use xlink:href="#C" fill="#ffca28" transform="matrix(.93969262 -.34202014 .34202014 .93969262 42.74562215 136.42326806)"/><use xlink:href="#D" fill="#ffb300" transform="matrix(.93969262 -.34202014 .34202014 .93969262 81.0633977 143.63602114)"/><use xlink:href="#B" fill="#ffecb3" transform="matrix(.93969262 -.34202014 .34202014 .93969262 49.3773977 155.76762114)"/><use xlink:href="#C" fill="#ffca28" transform="matrix(.93969262 -.34202014 .34202014 .93969262 23.01372215 79.39786806)"/><use xlink:href="#D" fill="#ffc107" transform="matrix(.93969262 -.34202014 .34202014 .93969262 61.3314977 86.61062114)"/><use xlink:href="#B" fill="#ffecb3" transform="matrix(.93969262 -.34202014 .34202014 .93969262 29.6454977 98.74222114)"/><use xlink:href="#C" fill="#ffc107" transform="matrix(.93969262 -.34202014 .34202014 .93969262 3.28172215 22.37246806)"/><use xlink:href="#D" fill="#ffa000" transform="matrix(.93969262 -.34202014 .34202014 .93969262 41.5995977 29.58502114)"/><use xlink:href="#B" fill="#ffe082" transform="matrix(.93969262 -.34202014 .34202014 .93969262 9.9136977 41.71672114)"/><use xlink:href="#C" fill="#ffca28" transform="matrix(.93969262 -.34202014 .34202014 .93969262 59.08962215 29.63156806)"/><use xlink:href="#D" fill="#ffb300" transform="matrix(.93969262 -.34202014 .34202014 .93969262 97.4073977 36.84422114)"/><use xlink:href="#B" fill="#ffecb3" transform="matrix(.93969262 -.34202014 .34202014 .93969262 65.7213977 48.97592114)"/><use xlink:href="#C" fill="#ffca28" transform="matrix(.93969262 -.34202014 .34202014 .93969262 116.87042215 37.66156806)"/><use xlink:href="#D" fill="#ffc107" transform="matrix(.93969262 -.34202014 .34202014 .93969262 155.1881977 44.87432114)"/><use xlink:href="#B" fill="#ffe082" transform="matrix(.93969262 -.34202014 .34202014 .93969262 123.5021977 57.00592114)"/><use xlink:href="#C" fill="#ffd54f" transform="matrix(.93969262 -.34202014 .34202014 .93969262 176.75312215 51.71836806)"/><use xlink:href="#D" fill="#ffa000" transform="matrix(.93969262 -.34202014 .34202014 .93969262 215.0709977 58.93102114)"/><use xlink:href="#B" fill="#ffe082" transform="matrix(.93969262 -.34202014 .34202014 .93969262 183.3849977 71.06262114)"/><use xlink:href="#C" fill="#ffd54f" transform="matrix(.93969262 -.34202014 .34202014 .93969262 138.29162215 100.97596806)"/><use xlink:href="#D" fill="#ffb300" transform="matrix(.93969262 -.34202014 .34202014 .93969262 176.6093977 108.18872114)"/></g><defs ><path id="B" d="M34.119 60.0334L0 40.0223V0l34.119 20.0112v40.0222"/><path id="C" d="M34.119 0l34.119 20.011-34.119 20.0112L0 20.011 34.119 0"/><path id="D" d="M34.119 0v40.0222L0 60.0334V20.011L34.119 0"/></defs></svg>