<svg xmlns="http://www.w3.org/2000/svg" viewBox="0 0 57 57"><defs><style>.a{fill:#07a77a;}</style></defs><title>barber-icon</title><path class="a" d="M29.86.49A5.9,5.9,0,0,1,29,3.14c6-.66,11.29.8,15.56,5.14-.1.05-.19,0-.28-.07a12.67,12.67,0,0,0-8.11-.49,30.36,30.36,0,0,1-4.73.9,20.17,20.17,0,0,1-7.16-.88,1.12,1.12,0,0,0-.61-.1,28.74,28.74,0,0,0,3,.91,18.7,18.7,0,0,0,8.58.06,15.94,15.94,0,0,1,4.45-.47,10.44,10.44,0,0,1,7.52,3.59,9.28,9.28,0,0,1,1.49,3.1,9,9,0,0,0-7.52-1.94,10.87,10.87,0,0,1,2.78.35,7.43,7.43,0,0,1,4.81,3.55c.24.43.51.85.77,1.27a8.35,8.35,0,0,0,2.74,2.87,2.64,2.64,0,0,1-2,.48c-.29-.05-.34,0-.33.28a23.87,23.87,0,0,1-1.1,7.69c0,.14-.08.27-.13.41s0,0-.11.08c-.13-.77-.25-1.52-.37-2.26a16.54,16.54,0,0,0-1-3.78,7.2,7.2,0,0,0-2.87-3.39.71.71,0,0,0-.5-.17,6.59,6.59,0,0,1,2,1.75,10.16,10.16,0,0,1,1.67,4.69c.23,1.62.28,3.26.58,4.87a1.21,1.21,0,0,1-.1.54,19.4,19.4,0,0,0-1.1,4.46c-.18,2,.19,3.74,2,5a1.68,1.68,0,0,1-.91-.11,5.68,5.68,0,0,1-3.54-3.73,10.6,10.6,0,0,1-.38-5.3c.15-1.08.39-2.15.52-3.24.32-2.87-2.28-6.17-5.4-5.86a5.82,5.82,0,0,0-4.81,3.39,11,11,0,0,0-.91,6.86,14.94,14.94,0,0,0,1.13,3.7,9.12,9.12,0,0,1,1,3.94,7.71,7.71,0,0,1-.41,2.25c-.1-.28-.16-.48-.24-.68a2.19,2.19,0,0,0-1.2-1.21c-.22-.11-.29-.06-.3.18a9.43,9.43,0,0,0,.41,2.74c1.77,7-1.79,8.61-5.38,10.11a35.93,35.93,0,0,1-7.93,1.9,8.5,8.5,0,0,0,.92-1c.33-.44-3.83.17-6.27-.27-1.52-.28-2.44-.3-3-1l1.53-.15a5.53,5.53,0,0,1-3.46-5.87c.23-1.12,1-2.19,1-3,0-1.08,0-2.16-.12-3.24,0-.24.06-.32.27-.38a2.84,2.84,0,0,1,1.23,0,6.61,6.61,0,0,0,2.77-.24,5.3,5.3,0,0,0-1.69-.66A12.51,12.51,0,0,0,11,40.31a.49.49,0,0,1-.5-.36,2.61,2.61,0,0,1,.39-2.79.73.73,0,0,1,.64-.24,19.28,19.28,0,0,1,8,2.43,12.74,12.74,0,0,0,3.8,1.6,5.35,5.35,0,0,0,1.22.12L24,40.91A7.64,7.64,0,0,1,21.2,39.4a.43.43,0,0,1-.16-.58A8.23,8.23,0,0,1,25,34.39a11.37,11.37,0,0,1,1.45-.7,4.47,4.47,0,0,0,2.32-2,9,9,0,0,0,.52-9.61,5.62,5.62,0,0,1,1,.82c.3.29.59.58.87.89s.53.66.81,1c0-.05,0-.09,0-.11a11.52,11.52,0,0,0-4.59-5.08c-.26-.15-.67-.21-.75-.41s.16-.54.26-.83a11.52,11.52,0,0,0,.66-3.67A10.44,10.44,0,0,1,29,15.5a11.28,11.28,0,0,0,4.82,1.72,9.18,9.18,0,0,0,3.86-.44c-.43,0-.87.11-1.31.15a9.2,9.2,0,0,1-5.63-1.33c-.76-.47-1.5-1-2.23-1.51a11.08,11.08,0,0,0-6.31-2,16.37,16.37,0,0,0-5.12.5c-.29.08-.38-.07-.49-.27A3.68,3.68,0,0,1,18.77,7l.69-.18a4.06,4.06,0,0,0-3.54,6.05l-1.38.44c-.21.08-.35-.05-.51-.14A5.65,5.65,0,0,1,11.14,8.1V7.5a6.13,6.13,0,0,0,2.14,6.22c-.61.42-.77.42-1.33,0-3.69-2.86-3-8.2,1.35-10.2a12.72,12.72,0,0,1,4.38-1,18.4,18.4,0,0,1,2.1,0c-.47.12-.94.23-1.4.36a9.32,9.32,0,0,0-4,2.12,4.56,4.56,0,0,0-1.06,5.23c0-.24-.11-.47-.15-.7a4.43,4.43,0,0,1,2.19-4.72,10.53,10.53,0,0,1,4.61-1.42,32.59,32.59,0,0,0,6.64-1.27A15.69,15.69,0,0,0,29.86.49Z"/></svg>